<svg xmlns="http://www.w3.org/2000/svg" fill="none" viewBox="0 0 64 64">
   <style> 
      @media (prefers-color-scheme: light), (prefers-color-scheme: dark) {
         path { fill: red; } 
         rect { fill: green; }
      }
   </style>
   <rect width="64" height="64" fill="#21005D" rx="8" />
   <path fill="#fff"
      d="M18 28.57a2.16 2.16 0 0 0-.87-1.6 3.48 3.48 0 0 0-2.1-.58c-.6 0-1.11.09-1.53.26-.41.16-.73.4-.95.69-.22.3-.33.63-.33 1 0 .32.06.59.2.82.15.23.35.44.6.6.26.17.55.32.89.44.33.12.7.22 1.07.3l1.57.38c.76.17 1.46.4 2.1.69.63.28 1.19.63 1.65 1.04a4.35 4.35 0 0 1 1.48 3.4c0 1.07-.27 2-.81 2.78a5.2 5.2 0 0 1-2.32 1.82 9.4 9.4 0 0 1-3.64.64 9.6 9.6 0 0 1-3.68-.65 5.4 5.4 0 0 1-2.44-1.92 5.73 5.73 0 0 1-.91-3.16h3.57c.04.59.2 1.07.5 1.47.3.38.7.67 1.2.87.5.2 1.08.3 1.72.3.62 0 1.16-.1 1.62-.28a2.5 2.5 0 0 0 1.09-.76c.25-.32.38-.7.38-1.11 0-.4-.12-.73-.35-1a2.65 2.65 0 0 0-1-.67c-.44-.2-.98-.36-1.62-.52l-1.9-.47a7.97 7.97 0 0 1-3.48-1.68 3.9 3.9 0 0 1-1.27-3.08c0-1.06.27-1.98.84-2.77a5.7 5.7 0 0 1 2.36-1.85 8.4 8.4 0 0 1 3.41-.66c1.3 0 2.43.22 3.4.66a5.37 5.37 0 0 1 2.26 1.85c.54.8.82 1.7.84 2.75H18Zm9.42-5.02 4.22 13.26h.16l4.23-13.26h4.09L34.1 41h-4.75l-6.03-17.45h4.1Zm25.39 5.64a3.83 3.83 0 0 0-.5-1.1 3.4 3.4 0 0 0-1.85-1.34c-.4-.12-.83-.18-1.3-.18-.9 0-1.68.22-2.36.67a4.36 4.36 0 0 0-1.57 1.93 7.56 7.56 0 0 0-.56 3.09c0 1.21.19 2.25.55 3.1.37.85.9 1.5 1.57 1.95.68.44 1.48.66 2.4.66a4.7 4.7 0 0 0 2.14-.44 3.1 3.1 0 0 0 1.36-1.27c.32-.54.48-1.19.48-1.93l.75.1h-4.5v-2.77h7.3v2.2c0 1.53-.32 2.85-.97 3.95a6.62 6.62 0 0 1-2.68 2.54c-1.13.6-2.43.89-3.9.89a8.41 8.41 0 0 1-4.31-1.08 7.51 7.51 0 0 1-2.9-3.1 10.34 10.34 0 0 1-1.03-4.77c0-1.41.2-2.68.61-3.78.42-1.12 1-2.06 1.74-2.83a7.51 7.51 0 0 1 2.6-1.77c.99-.4 2.06-.6 3.21-.6 1 0 1.91.14 2.77.43.85.29 1.6.69 2.26 1.21a6.55 6.55 0 0 1 2.44 4.24h-3.75Z" />
</svg>