<svg xmlns="http://www.w3.org/2000/svg" fill="var(--icon-color, #32ba55)" viewBox="0 0 128 128">
   <style> 
      @media (prefers-color-scheme: light), (prefers-color-scheme: dark) {
         path { scale: 0.5; transform-origin: center; fill: red } 
      }
   </style>

   <path d="M99.5 0c-7.3 0-13 3-17.2 8.7a40.4 40.4 0 0 0-59 35.7c0 22.1 18.3 40 40.7 40a40.3 40.3 0 0 0 40.6-40c0-7.8-2.3-15.4-6.6-21.9 4.3-1.3 8.3.2 8.3.2V1.4S104.2 0 99.5 0ZM81.7 44.4c0 10.3-8 18.7-17.7 18.7-9.8 0-17.7-8.4-17.7-18.7 0-10.3 8-18.6 17.7-18.6S81.7 34 81.7 44.4Z" />
   <path d="M81.7 87.3v.7c0 10.3-8 18.6-17.7 18.6a18.2 18.2 0 0 1-17.7-19.3h-23v.7c0 22 18.3 40 40.7 40 22.4 0 40.6-18 40.6-40v-.7h-23Z" />
</svg>