<svg xmlns="http://www.w3.org/2000/svg" fill="#fff" viewBox="0 0 256 256" width="256" height="256">
   <style> 
      @media (prefers-color-scheme: light), (prefers-color-scheme: dark) {
         circle { 
            fill: none;
         }

         path {
            fill: #32BA55;
            transform-origin: center;
            transform: scale(1.55);
         }
      }
   </style>
   <circle cx="128" cy="128" r="120" fill="#32BA55"/>
   <path d="M172.8 48a25 25 0 0 0-21.4 11 50.5 50.5 0 0 0-73.7 44.6c0 27.6 22.7 50 50.8 50 28 0 50.8-22.4 50.8-50a50 50 0 0 0-8.4-27.5c5.5-1.6 10.5.2 10.5.2V49.8s-2.7-1.8-8.6-1.8Zm-22.2 55.6c0 12.8-10 23.3-22.1 23.3a22.8 22.8 0 0 1-22.2-23.3c0-13 10-23.4 22.2-23.4a22.8 22.8 0 0 1 22 23.4Z"/>
   <path d="M150.6 157.2v.8c0 12.8-10 23.3-22.1 23.3a22.8 22.8 0 0 1-22.1-24.1H77.7v.7a50.5 50.5 0 0 0 50.8 50.1c28 0 50.8-22.5 50.8-50v-.8h-28.7Z"/>
</svg>
