<svg xmlns="http://www.w3.org/2000/svg" fill="none" viewBox="0 0 256 256">
   <path fill="url(#a)" d="M0 0h256v256H0z" />
   <path fill="#fff"
      d="M175.1 43c-9.6 0-17.3 4-22.8 11.6A53.6 53.6 0 0 0 74 102a53.6 53.6 0 0 0 54 53.2c29.8 0 54-23.8 54-53.2 0-10.4-3-20.4-8.9-29.1 5.8-1.7 11.2.2 11.2.2V45s-3-1.9-9.2-1.9Zm-23.6 59a24.2 24.2 0 0 1-23.5 24.8c-13 0-23.5-11.1-23.5-24.8A24.2 24.2 0 0 1 128 77.2c13 0 23.5 11.2 23.5 24.8Z" />
   <path fill="#fff"
      d="M151.5 159v.8a24.2 24.2 0 0 1-23.5 24.8 24.2 24.2 0 0 1-23.5-25.6H74v.8a53.6 53.6 0 0 0 54 53.2c29.7 0 54-23.9 54-53.2v-.8h-30.5Z" />
   <linearGradient id="a" x1="89" x2="89" y1="0" y2="256" gradientUnits="userSpaceOnUse">
      <stop stop-color="#32BA55" />
      <stop offset="1" stop-color="#19905E" />
   </linearGradient>
</svg>